SplineFontDB: 3.0
FontName: forsythe-medium
FullName: Forsythe
FamilyName: Forsythe
Weight: Medium
Copyright: Copyright (c) 2012, Tristen Brown <tristen.brown@gmail.com>, with Reserved Font Name: 'Forsyhe'.\n\nThis Font Software is licensed under the SIL Open Font License, Version 1.0.\nThe license available with a FAQ at:\nhttp://scripts.sil.org/OFL\n\nSeptember 2012
Version: 001.000
ItalicAngle: 0
UnderlinePosition: -100
UnderlineWidth: 50
Ascent: 800
Descent: 200
sfntRevision: 0x00010000
LayerCount: 2
Layer: 0 0 "Back"  1
Layer: 1 0 "Fore"  0
XUID: [1021 562 2126814528 2299898]
FSType: 0
OS2Version: 4
OS2_WeightWidthSlopeOnly: 0
OS2_UseTypoMetrics: 1
CreationTime: 1347737418
ModificationTime: 1349020292
PfmFamily: 17
TTFWeight: 500
TTFWidth: 5
LineGap: 90
VLineGap: 0
Panose: 2 0 6 3 0 0 0 0 0 0
OS2TypoAscent: 800
OS2TypoAOffset: 0
OS2TypoDescent: -200
OS2TypoDOffset: 0
OS2TypoLinegap: 90
OS2WinAscent: 600
OS2WinAOffset: 0
OS2WinDescent: 200
OS2WinDOffset: 0
HheadAscent: 600
HheadAOffset: 0
HheadDescent: -200
HheadDOffset: 0
OS2SubXSize: 650
OS2SubYSize: 700
OS2SubXOff: 0
OS2SubYOff: 140
OS2SupXSize: 650
OS2SupYSize: 700
OS2SupXOff: 0
OS2SupYOff: 480
OS2StrikeYSize: 49
OS2StrikeYPos: 258
OS2Vendor: 'PfEd'
OS2CodePages: 00000001.00000000
OS2UnicodeRanges: 00000001.00000000.00000000.00000000
Lookup: 258 0 0 "'kern' Horizontal Kerning in Latin lookup 0"  {"'kern' Horizontal Kerning in Latin lookup 0 subtable" [150,15,0] } ['kern' ('latn' <'dflt' > ) ]
MarkAttachClasses: 1
DEI: 91125
LangName: 1033 "" "" "" "FontForge 2.0 : Forsythe : 20-9-2012" 
Encoding: UnicodeBmp
UnicodeInterp: none
NameList: Adobe Glyph List
DisplaySize: -24
AntiAlias: 1
FitToEm: 1
WinInfo: 0 38 11
BeginPrivate: 6
BlueValues 19 [-200 -200 600 600]
BlueShift 1 0
StdHW 4 [96]
StdVW 4 [96]
StemSnapH 36 [80 88 94 95 96 122 144 176 200 212]
StemSnapV 4 [96]
EndPrivate
BeginChars: 65537 96

StartChar: .notdef
Encoding: 65536 -1 0
Width: 500
Flags: MW
HStem: 0 50<100 400 100 450> 483 50<100 400 100 100>
VStem: 50 50<50 50 50 483> 400 50<50 483 483 483>
LayerCount: 2
Fore
SplineSet
50 0 m 1
 50 533 l 1
 450 533 l 1
 450 0 l 1
 50 0 l 1
100 50 m 1
 400 50 l 1
 400 483 l 1
 100 483 l 1
 100 50 l 1
EndSplineSet
Validated: 1
EndChar

StartChar: exclam
Encoding: 33 33 2
Width: 136
Flags: HMW
HStem: -200 96<20 116 20 116> 580 20G<20 116 116 116> 580 20G<20 116 116 116>
VStem: 20 96<-200 -104 -200 -104 -56 600>
LayerCount: 2
Fore
SplineSet
20 600 m 1xd0
 116 600 l 1
 116 -56 l 1
 20 -56 l 1
 20 600 l 1xd0
20 -104 m 1
 116 -104 l 1
 116 -200 l 1
 20 -200 l 1
 20 -104 l 1
EndSplineSet
Validated: 1
EndChar

StartChar: quotedbl
Encoding: 34 34 3
Width: 312
Flags: HMW
HStem: 400 200<20 128.812 20 128.812 20 183.188 183.188 292>
VStem: 20 108.812<400 600 400 600> 183.188 108.812<400 600 400 600>
LayerCount: 2
Fore
SplineSet
20 600 m 1
 128.8125 600 l 1
 128.8125 400 l 1
 20 400 l 1
 20 600 l 1
183.1875 600 m 1
 292 600 l 1
 292 400 l 1
 183.1875 400 l 1
 183.1875 600 l 1
EndSplineSet
Validated: 524289
EndChar

StartChar: numbersign
Encoding: 35 35 4
Width: 408
Flags: HMW
HStem: -200 21G<68 164 68 68 244 340 244 244> -200 21G<68 164 68 68 244 340 244 244> 56 96<20 68 20 68 164 244 340 388> 248 96<20 68 20 68 164 244 340 388> 580 20G<68 164 164 164 244 340 340 340> 580 20G<68 164 164 164 244 340 340 340>
VStem: 68 96<-200 56 -200 56 152 248 344 600> 244 96<-200 56 -200 56 152 248 344 600>
LayerCount: 2
Fore
SplineSet
68 600 m 1xbb
 164 600 l 1
 164 344 l 1
 244 344 l 1
 244 600 l 1
 340 600 l 1
 340 344 l 1
 388 344 l 1
 388 248 l 1
 340 248 l 1
 340 152 l 1
 388 152 l 1
 388 56 l 1
 340 56 l 1
 340 -200 l 1
 244 -200 l 1
 244 56 l 1
 164 56 l 1
 164 -200 l 1
 68 -200 l 1
 68 56 l 1
 20 56 l 1
 20 152 l 1
 68 152 l 1
 68 248 l 1
 20 248 l 1
 20 344 l 1
 68 344 l 1
 68 600 l 1xbb
164 248 m 1
 164 152 l 1
 244 152 l 1
 244 248 l 1
 164 248 l 1
EndSplineSet
Validated: 1
EndChar

StartChar: dollar
Encoding: 36 36 5
Width: 328
Flags: HMW
HStem: -200 176<145.812 180 180 196 145.812 212 116 180> 152 96<68.0176 244 148 180 180 180.006> 424 176<132 148 148 180 180 180.045>
VStem: 20 96<-200 -56 264 280 280 344 344 392> 116 96<-200 -120 -200 -120 8 40 360 392 520 600> 212 95.5<-200 184 8 40 40 88 88 120 120 136>
CounterMasks: 1 e0
LayerCount: 2
Fore
SplineSet
116 600 m 1xe8
 212 600 l 1
 212 520 l 1xe8
 244 520 l 1
 275.010742188 512.247070312 307.5 488 307.5 456 c 2
 308 360 l 1
 212 360 l 1
 212 394.78125 l 2
 211.997070312 423.993164062 212 424 180.044921875 424 c 2
 180 424 l 1
 148 424 l 2
 116 424 116 424 116 392 c 2
 116 344 l 1
 116 280 l 2
 116 248 116.038085938 248 148 248 c 2
 244 248 l 2
 275.96484375 248 307.5 216 307.5 184 c 2
 307.5 -56 l 2xf4
 307.497070312 -88 275.96484375 -120 244 -120 c 2
 212 -120 l 1
 212 -200 l 1
 116 -200 l 1
 116 -120 l 1xe8
 84 -120 l 2
 52.03515625 -120 20 -88 20 -56 c 2
 20.5 40 l 1
 116 40 l 1
 116 8 l 2
 116 -24 116 -24 145.8125 -24 c 2
 180 -24 l 2
 212 -24 212 -24 212 8 c 2
 212 40 l 1
 212 88 l 1
 212 120 l 2
 212 151.999023438 211.96484375 152 180.005859375 152 c 2
 180 152 l 1
 84 152 l 2
 52.03515625 152 20 184 20 216 c 2
 20 456 l 2xf4
 20 488 52.03515625 520 84 520 c 2
 116 520 l 1
 116 600 l 1xe8
EndSplineSet
Validated: 524289
EndChar

StartChar: percent
Encoding: 37 37 6
Width: 312
Flags: HMW
HStem: -200 96<20 292 196 292 196 292> 504 96<20 116 20 116>
VStem: 20 96<-200 -200 504 600> 196 96<-200 -104 -200 -104>
LayerCount: 2
Fore
SplineSet
20 600 m 1
 116 600 l 1
 116 504 l 1
 20 504 l 1
 20 600 l 1
196 600 m 1
 292 600 l 1
 116 -200 l 1
 20 -200 l 1
 196 600 l 1
196 -104 m 1
 292 -104 l 1
 292 -200 l 1
 196 -200 l 1
 196 -104 l 1
EndSplineSet
Validated: 1
EndChar

StartChar: ampersand
Encoding: 38 38 7
Width: 360
Flags: HMW
HStem: -200 96<68 148 147.89 148 148 164 164 180 147.89 228> 152 96<20 20 116 196 292 340> 504 96<131.5 147 147 244>
VStem: 20 96<-87.0371 -70.0938 -70.0938 152 248 472> 196 96<-72 152 248 296>
CounterMasks: 1 e0
LayerCount: 2
Fore
SplineSet
84 600 m 2
 244 600 l 1
 244 504 l 1
 147 504 l 2
 116 504 116 504 116 472 c 2
 116 248 l 1
 196 248 l 1
 196 296 l 1
 292 296 l 1
 292 248 l 1
 340 248 l 1
 340 152 l 1
 292 152 l 1
 292 -136 l 2
 292 -168 260 -200 228 -200 c 2
 84 -200 l 2
 52 -200 20 -168 20 -136 c 2
 20 152 l 1
 84 184 l 1
 20 248 l 1
 20 536 l 2
 20 568 52 600 84 600 c 2
116 152 m 1
 116 -70.09375 l 2
 116 -103.98046875 116 -104 147.889648438 -104 c 2
 148 -104 l 1
 164 -104 l 2
 196 -104 196 -104 196 -72 c 2
 196 152 l 1
 116 152 l 1
EndSplineSet
Validated: 524289
EndChar

StartChar: quotesingle
Encoding: 39 39 8
Width: 148
Flags: HMW
HStem: 400 200<20 128.812 20 128.812>
VStem: 20 108.812<400 600 400 600>
LayerCount: 2
Fore
SplineSet
20 600 m 1
 128.8125 600 l 1
 128.8125 400 l 1
 20 400 l 1
 20 600 l 1
EndSplineSet
Validated: 524289
EndChar

StartChar: parenleft
Encoding: 40 40 9
Width: 232
Flags: HMW
HStem: -200 96<68 212 148.094 212 148.094 212> 504 96<131.644 147.046 147.046 147.563 147.563 212.001>
VStem: 20 96<-88 -72 -72 472 472 472.713> 20 192<-136 -104 -200 539>
LayerCount: 2
Fore
SplineSet
84 600 m 2xd0
 212.000976562 600 l 1
 212.000976562 504 l 1xd0
 147.563476562 504 l 1
 147.045898438 504 l 2
 116.2421875 504 116 503.828125 116 472.712890625 c 2
 116 472 l 1
 116 -72 l 2xe0
 116 -104 116.013671875 -104 148.09375 -104 c 2
 212 -104 l 1
 212 -200 l 1
 84 -200 l 2
 52 -200 20 -168 20 -136 c 2
 20 539 l 1
 20 539.002929688 l 2
 20 568.001953125 52.0009765625 600 84 600 c 2xd0
EndSplineSet
Validated: 524289
EndChar

StartChar: parenright
Encoding: 41 41 10
Width: 232
Flags: HMW
HStem: -200 96<20 84 84 99.876 20 148 20 84> 503.999 96<20 20>
VStem: 20 191.998<539 539.003 539 599.999 539 599.999> 115.998 96<-70.501 539.003 470.436 539.003 471.21 539.003>
LayerCount: 2
Fore
SplineSet
148 600 m 2xe0
 179.999023438 600 211.998046875 568.001953125 211.998046875 539.002929688 c 2
 211.998046875 539 l 1
 212 -136 l 2
 212 -168 180 -200 148 -200 c 2
 20 -200 l 1
 20 -104 l 1xe0
 84 -104 l 2
 115.751953125 -104 115.998046875 -104 115.998046875 -71.2744140625 c 2
 115.998046875 -70.5009765625 l 1
 115.998046875 470.435546875 l 1xd0
 115.998046875 471.209960938 l 2
 115.998046875 504 115.751953125 504 84 504 c 2
 20 503.999023438 l 1
 20 599.999023438 l 1
 148 600 l 2xe0
EndSplineSet
Validated: 524289
EndChar

StartChar: asterisk
Encoding: 42 42 11
Width: 264
Flags: HMW
HStem: 376 224<100 165 100 165>
VStem: 100 65<376 440 376 440>
LayerCount: 2
Fore
SplineSet
100 600 m 1
 165 600 l 1
 164 536 l 1
 212 568 l 1
 244 520 l 1
 196 488 l 1
 244 456 l 1
 212 408 l 1
 164 440 l 1
 165 376 l 1
 100 376 l 1
 100 440 l 1
 52 408 l 1
 20 456 l 1
 68 488 l 1
 20 520 l 1
 52 568 l 1
 100 536 l 1
 100 600 l 1
EndSplineSet
Validated: 1
EndChar

StartChar: plus
Encoding: 43 43 12
Width: 392
Flags: HMW
HStem: 160 88<20 152 20 152 240 372>
VStem: 152 88<28 160 28 160 248 380>
LayerCount: 2
Fore
SplineSet
152 380 m 1
 240 380 l 1
 240 248 l 1
 372 248 l 1
 372 160 l 1
 240 160 l 1
 240 28 l 1
 152 28 l 1
 152 160 l 1
 20 160 l 1
 20 248 l 1
 152 248 l 1
 152 380 l 1
EndSplineSet
Validated: 1
EndChar

StartChar: comma
Encoding: 44 44 13
Width: 184
Flags: HMW
HStem: -200 144
VStem: 20 144<-164 -92 -92 -92>
LayerCount: 2
Fore
SplineSet
164 -56 m 1
 164 -164 l 1
 20 -200 l 1
 20 -92 l 1
 164 -56 l 1
EndSplineSet
Validated: 1
EndChar

StartChar: hyphen
Encoding: 45 45 14
Width: 312
Flags: HMW
HStem: 156 96<20 292 20 292>
VStem: 20 272<156 252 156 252>
LayerCount: 2
Fore
SplineSet
20 252 m 1
 292 252 l 1
 292 156 l 1
 20 156 l 1
 20 252 l 1
EndSplineSet
Validated: 1
EndChar

StartChar: period
Encoding: 46 46 15
Width: 136
Flags: HMW
HStem: -200 96<20 116 20 116>
VStem: 20 96<-200 -104 -200 -104>
LayerCount: 2
Fore
SplineSet
20 -104 m 1
 116 -104 l 1
 116 -200 l 1
 20 -200 l 1
 20 -104 l 1
EndSplineSet
Validated: 1
EndChar

StartChar: slash
Encoding: 47 47 16
Width: 312
Flags: HMW
HStem: -200 21G<20 116 20 20> -200 21G<20 116 20 20> 580 20G<196 292 292 292> 580 20G<196 292 292 292>
VStem: 20 272
LayerCount: 2
Fore
SplineSet
196 600 m 1xa8
 292 600 l 1
 116 -200 l 1
 20 -200 l 1
 196 600 l 1xa8
EndSplineSet
Validated: 1
EndChar

StartChar: zero
Encoding: 48 48 17
Width: 312
Flags: HMW
HStem: -200 96 504.003 95.9965
VStem: 20 96<-87.998 -71.999 -71.999 472.001> 196 96<-71.999 472.001 472.001 472.517>
LayerCount: 2
Fore
SplineSet
84 600 m 2
 164 600 l 1
 228 600 l 2
 260.025390625 600 292 568 292 536 c 2
 292 -136 l 2
 292 -168 260.025390625 -200 228 -200 c 2
 164 -200 l 1
 84 -200 l 2
 51.974609375 -200 20 -168 20 -136 c 2
 20 536 l 2
 20 568 51.974609375 600 84 600 c 2
142.28125 504 m 0
 116.442382812 503.887695312 115.999023438 502.125976562 115.999023438 474.986328125 c 0
 115.999023438 474.0234375 116 473.028320312 116 472.000976562 c 2
 116 -71.9990234375 l 2
 116 -103.997070312 116.209960938 -103.999023438 147.98828125 -103.999023438 c 2
 148 -103.999023438 l 1
 164 -103.999023438 l 1
 164.01171875 -103.999023438 l 2
 195.791992188 -103.999023438 196 -103.997070312 196 -71.9990234375 c 2
 196 472.000976562 l 2
 196 473.032226562 196.000976562 474.030273438 196.000976562 474.99609375 c 0
 196.000976562 503.76953125 195.500976562 504 164.739257812 504 c 2
 164 504 l 1
 148 504 l 2
 146.643554688 504 145.346679688 504.00390625 144.104492188 504.00390625 c 0
 143.483398438 504.00390625 142.875976562 504.002929688 142.28125 504 c 0
EndSplineSet
Validated: 524289
EndChar

StartChar: one
Encoding: 49 49 18
Width: 184
Flags: HMW
HStem: -200 21G<68 164 68 68> -200 21G<68 164 68 68> 504 96<20 68 20 68>
VStem: 20 144<504 600 -200 600> 68 96<-200 504 504 504 -200 600>
LayerCount: 2
Fore
SplineSet
20 600 m 1xb0
 68 600 l 1xa8
 164 600 l 1xb0
 164 -200 l 1
 68 -200 l 1
 68 504 l 1xa8
 20 504 l 1
 20 600 l 1xb0
EndSplineSet
Validated: 1
EndChar

StartChar: two
Encoding: 50 50 19
Width: 280
Flags: HMW
HStem: -200 96<68.0527 260 148.031 259.75> 152 96<132.053 147.308 83.9062 148.031 83.9062 196.219> 504 96<20 131.969 20 196.094 131.969 131.984>
VStem: 20.3125 95.5625<-128 -64> 163.974 96.0264
CounterMasks: 1 e0
LayerCount: 2
Fore
SplineSet
20 600 m 1
 196.09375 600 l 2
 228.05078125 600 260 568 260 536 c 2
 260 208 l 2
 260 176 228.17578125 152 196.21875 152 c 2
 148.03125 152 l 2
 116.07421875 152 116.078125 152 116.03125 120 c 2
 115.875 -64 l 2
 116.03515625 -104 116.071289062 -104 148.03125 -104 c 2
 260 -104 l 1
 259.75 -200 l 1
 84.03125 -200 l 2
 52.07421875 -200 20.345703125 -160 20.3125 -128 c 2
 20 184 l 2
 20 216 51.94921875 248 83.90625 248 c 2
 131.96875 248 l 2
 162.646484375 248 163.973632812 248 163.973632812 276.3203125 c 0
 163.973632812 277.497070312 163.971679688 278.72265625 163.96875 280 c 2
 163.75 384 l 1
 163.75 480 l 1
 163.75 480.7578125 l 2
 163.75 503.998046875 163.58203125 504 131.984375 504 c 2
 131.96875 504 l 1
 20 504 l 1
 20 600 l 1
EndSplineSet
Validated: 524289
EndChar

StartChar: three
Encoding: 51 51 20
Width: 280
Flags: HMW
HStem: -200 96<20 164 20 196 20 164> 152 96<20 164 20 164> 504 96<20 164 20 196>
VStem: 20 240<-152 -136 -136 -104 -104 -104 504 536> 164 96<-104 152 248 504 504 504>
CounterMasks: 1 e0
LayerCount: 2
Fore
SplineSet
20 600 m 1xf0
 196 600 l 2
 228 600 260 568 260 536 c 2xf0
 260 248 l 1
 196 184 l 1
 260 152 l 1xe8
 260 -136 l 2
 260 -168 228 -200 196 -200 c 2
 20 -200 l 1
 20 -104 l 1xf0
 164 -104 l 1
 164 152 l 1xe8
 20 152 l 1
 20 248 l 1xf0
 164 248 l 1
 164 504 l 1xe8
 20 504 l 1
 20 600 l 1xf0
EndSplineSet
Validated: 1
EndChar

StartChar: four
Encoding: 52 52 21
Width: 312
Flags: HMW
HStem: -200 21G<196 292 196 196> -200 21G<196 292 196 196> 152 96<116 196 116 196> 580 20G<20 116 116 116 196 292 292 292> 580 20G<20 116 116 116 196 292 292 292>
VStem: 20 96<248 600 248 600 248 600> 196 96<-200 152 152 152 248 600 -200 600>
LayerCount: 2
Fore
SplineSet
20 600 m 1xb6
 116 600 l 1
 116 248 l 1
 196 248 l 1
 196 600 l 1
 292 600 l 1
 292 -200 l 1
 196 -200 l 1
 196 152 l 1
 20 152 l 1
 20 600 l 1xb6
EndSplineSet
Validated: 1
EndChar

StartChar: five
Encoding: 53 53 22
Width: 280
Flags: HMW
HStem: -200 96<20 132.156 132.156 148.111 20 195.812 20 132.156> 152 96<67.9551 195.812 83.9375 195.812 132.156 195.812> 504 96<116.281 260 116.281 116.281>
VStem: 20 96.2812<264 280 280 376 376 504> 164.094 95.6562<-72.1641 -72 -72 -40 -40 56 56 120 120 120.164 120.164 136.082>
CounterMasks: 1 e0
LayerCount: 2
Fore
SplineSet
20 600 m 1
 260 600 l 1
 260 504 l 1
 116.28125 504 l 1
 116.28125 376 l 1
 116.28125 280 l 2
 116.28125 248 116.288085938 248 148.25 248 c 2
 195.8125 248 l 2
 227.77734375 248 259.75 216 259.75 184 c 2
 259.75 -136 l 2
 259.75 -168 227.77734375 -200 195.8125 -200 c 2
 20 -200 l 1
 20 -104 l 1
 132.15625 -104 l 2
 164.06640625 -104 164.09375 -104 164.09375 -72.1640625 c 2
 164.09375 -72 l 1
 164.09375 -40 l 1
 164.09375 56 l 1
 164.09375 120 l 1
 164.09375 120.1640625 l 2
 164.09375 151.999023438 164.06640625 152 132.162109375 152 c 2
 132.15625 152 l 1
 83.9375 152 l 2
 51.97265625 152 20 184 20 216 c 2
 20 600 l 1
EndSplineSet
Validated: 524289
EndChar

StartChar: six
Encoding: 54 54 23
Width: 312
Flags: HMW
HStem: -200 96<68 147.938 147.414 147.938 147.938 163.907 163.907 179.884 147.414 228.031> 152.005 95.9952 580 20G<20 115.719 115.719 115.719> 580 20G<20 115.719 115.719 115.719>
VStem: 20 95.9375 195.875 96.125
LayerCount: 2
Fore
SplineSet
20 600 m 1xec
 115.71875 600 l 1
 116 248 l 1
 228 248 l 2
 260 248 292 216 292 184 c 2
 292 -136 l 2
 292 -168 260.015625 -200 228.03125 -200 c 2
 84 -200 l 2
 52 -200 20 -168 20 -136 c 2
 20 600 l 1xec
142.3125 152 m 0
 115.958984375 151.840820312 115.938476562 149.588867188 115.938476562 119 c 2
 115.938476562 -72 l 2
 115.938476562 -103.825195312 115.954101562 -104 147.4140625 -104 c 2
 147.938476562 -104 l 1
 163.907226562 -104 l 2
 195.860351562 -104 195.875976562 -104 195.875976562 -72.09375 c 2
 195.875976562 -72 l 1
 195.875976562 121 l 1
 195.875976562 121.965820312 l 2
 195.875976562 151.999023438 195.709960938 152 164.000976562 152 c 2
 147.938476562 152 l 2
 146.60546875 152 145.330078125 152.004882812 144.107421875 152.004882812 c 0
 143.49609375 152.004882812 142.8984375 152.00390625 142.3125 152 c 0
EndSplineSet
Validated: 524289
EndChar

StartChar: seven
Encoding: 55 55 24
Width: 306
Flags: HMW
HStem: -200 21G<192.562 286.656 192.562 192.562> -200 21G<192.562 286.656 192.562 192.562> 505.875 94.125<20 192.562 20 286.656>
VStem: 192.562 94.0938<-200 505.875 505.875 505.875>
LayerCount: 2
Fore
SplineSet
20 600 m 1xb0
 286.65625 600 l 1
 286.65625 -200 l 1
 192.5625 -200 l 1
 192.5625 505.875 l 1
 20 505.875 l 1
 20 600 l 1xb0
EndSplineSet
Validated: 524289
EndChar

StartChar: eight
Encoding: 56 56 25
Width: 312
Flags: HMW
HStem: -200 96 152.003 95.9965 504.003 95.9965
VStem: 20 96<264.686 281 281 472> 196 96
LayerCount: 2
Fore
SplineSet
84 600 m 2
 228 600 l 2
 259.993164062 600 292 568 292 536 c 2
 291.5 248 l 1
 227.5 184 l 1
 292 152 l 1
 292 -136 l 2
 292 -168 259.993164062 -200 228 -200 c 2
 84 -200 l 2
 52 -200 20 -168 20 -136 c 2
 20 152 l 1
 84 184 l 1
 20 248 l 1
 20 536 l 2
 20.8876953125 567.987304688 52 600 84 600 c 2
142.3125 504 m 0
 118.251953125 503.89453125 115.944335938 502.346679688 115.944335938 479.920898438 c 0
 115.944335938 477.526367188 115.970703125 474.893554688 116 472 c 2
 116 281 l 2
 116 248.37109375 116.006835938 248 148 248 c 2
 163.5 248 l 2
 195.407226562 248 196 248 196 279 c 2
 196 472 l 2
 196 504 195.993164062 504 164 504 c 2
 148 504 l 2
 146.653320312 504 145.36328125 504.00390625 144.126953125 504.00390625 c 0
 143.508789062 504.00390625 142.904296875 504.002929688 142.3125 504 c 0
142.311523438 151.999023438 m 0
 116.270507812 151.880859375 115.999023438 150.017578125 115.999023438 120.897460938 c 0
 115.999023438 120.27734375 115.999023438 119.64453125 115.999023438 118.999023438 c 2
 115.999023438 -72.0009765625 l 1
 115.999023438 -73.3359375 l 2
 115.999023438 -104.000976562 116.22265625 -104.000976562 147.999023438 -104.000976562 c 2
 163.999023438 -104.000976562 l 2
 195.993164062 -104.000976562 195.999023438 -104.000976562 195.999023438 -72.0009765625 c 2
 195.999023438 120.999023438 l 2
 195.999023438 151.999023438 195.4921875 151.999023438 163.499023438 151.999023438 c 2
 147.999023438 151.999023438 l 2
 146.65234375 151.999023438 145.361328125 152.002929688 144.125 152.002929688 c 0
 143.506835938 152.002929688 142.90234375 152.001953125 142.311523438 151.999023438 c 0
EndSplineSet
Validated: 524289
EndChar

StartChar: nine
Encoding: 57 57 26
Width: 312
Flags: HMW
HStem: -200 21G<196.281 292 196.281 196.281> -200 21G<196.281 292 196.281 196.281> 152 96<68 164.063 148.001 164.063 164.063 164.183 164.183 180.115 148.001 196> 504.003 95.9965
VStem: 20 96.125 196.281 95.7188<-200 536>
LayerCount: 2
Fore
SplineSet
83.96875 600 m 2xbc
 228 600 l 2
 260 600 292 568 292 536 c 2
 292 -200 l 1
 196.28125 -200 l 1
 196 152 l 1
 84 152 l 2
 52 152 20 184 20 216 c 2
 20 536 l 2
 20 568 51.984375 600 83.96875 600 c 2xbc
142.46875 504 m 0
 116.134765625 503.8828125 116.125976562 502.002929688 116.125976562 472.06640625 c 2
 116.125976562 472 l 1
 116.125976562 279 l 1
 116.125976562 278.034179688 l 2
 116.125976562 248.000976562 116.291992188 248 148.000976562 248 c 2
 164.063476562 248 l 1
 164.182617188 248 l 2
 196.047851562 248 196.063476562 248.412109375 196.063476562 281 c 2
 196.063476562 472 l 2
 196.063476562 503.825195312 196.047851562 504 164.587890625 504 c 2
 164.063476562 504 l 1
 148.094726562 504 l 2
 146.76171875 504 145.486328125 504.00390625 144.263671875 504.00390625 c 0
 143.65234375 504.00390625 143.0546875 504.002929688 142.46875 504 c 0
EndSplineSet
Validated: 524289
EndChar

StartChar: colon
Encoding: 58 58 27
Width: 136
Flags: W
HStem: -40 176<20 116> 264 176<20 116>
VStem: 20 96<-40 136 264 440>
LayerCount: 2
Fore
SplineSet
20 440 m 1
 116 440 l 1
 116 264 l 1
 20 264 l 1
 20 440 l 1
20 136 m 1
 116 136 l 1
 116 -40 l 1
 20 -40 l 1
 20 136 l 1
EndSplineSet
Validated: 1
EndChar

StartChar: semicolon
Encoding: 59 59 28
Width: 136
Flags: W
HStem: -200 21G<20 116> 264 176<20 116>
VStem: 20 96<-200 136 264 440>
LayerCount: 2
Fore
SplineSet
20 440 m 5
 116 440 l 5
 116 264 l 5
 20 264 l 5
 20 440 l 5
20 136 m 5
 116 136 l 5
 116 -200 l 5
 20 -200 l 5
 20 136 l 5
EndSplineSet
Validated: 1
EndChar

StartChar: less
Encoding: 60 60 29
Width: 360
Flags: HMW
VStem: 20 320<-186 246 -186 246>
LayerCount: 2
Fore
SplineSet
340 582 m 1
 340 438 l 1
 100 198 l 1
 340 -42 l 1
 340 -186 l 1
 20 150 l 1
 20 246 l 1
 340 582 l 1
EndSplineSet
Validated: 1
EndChar

StartChar: equal
Encoding: 61 61 30
Width: 312
Flags: HMW
HStem: 60 96<20 292 20 292> 252 96<20 292 20 292>
VStem: 20 272<60 156 60 156 252 348 60 348>
LayerCount: 2
Fore
SplineSet
20 348 m 1
 292 348 l 1
 292 252 l 1
 20 252 l 1
 20 348 l 1
20 156 m 1
 292 156 l 1
 292 60 l 1
 20 60 l 1
 20 156 l 1
EndSplineSet
Validated: 1
EndChar

StartChar: greater
Encoding: 62 62 31
Width: 360
Flags: HMW
VStem: 20 320<-185 247 -41 247 151 583>
LayerCount: 2
Fore
SplineSet
20 583 m 1
 340 247 l 1
 340 151 l 1
 20 -185 l 1
 20 -41 l 1
 260 199 l 1
 20 439 l 1
 20 583 l 1
EndSplineSet
Validated: 1
EndChar

StartChar: question
Encoding: 63 63 32
Width: 296
Flags: HMW
HStem: -200 96<20 116 20 116> 152 96<132.018 148 148 163.981 84 212.219> 504 96<20 148 20 212.062 148 148.016>
VStem: 20 96<-200 -104 -200 -104 -56 120> 179.781 96.2188<384 480 480 480.796 480.796 492.397>
CounterMasks: 1 e0
LayerCount: 2
Fore
SplineSet
20 600 m 1
 212.0625 600 l 2
 244.02734375 600 276 568 276 536 c 2
 276 208 l 2
 276 176 244.18359375 152 212.21875 152 c 2
 148 152 l 2
 116.03515625 152 116.046875 152 116 120 c 2
 116 -56 l 1
 20 -56 l 1
 20 182 l 2
 20 216 52 248 84 248 c 2
 148 248 l 2
 179.961914062 248 177.609375 248.080078125 180 280 c 1
 179.78125 384 l 1
 179.78125 480 l 1
 179.78125 480.795898438 l 2
 179.78125 503.998046875 179.604492188 504 148.015625 504 c 2
 148 504 l 1
 20 504 l 1
 20 600 l 1
20 -104 m 1
 116 -104 l 1
 116 -200 l 1
 20 -200 l 1
 20 -104 l 1
EndSplineSet
Validated: 524289
EndChar

StartChar: at
Encoding: 64 64 33
Width: 440
Flags: HMW
HStem: -200 96<67.8687 147.688 147.676 147.688 147.688 419> -24 96<212.1 276.562 276.56 276.562 276.562 308.562 308.562 308.565 308.565 315.576 276.56 355.281> 280.004 95.9961<287.161 288.086> 504 96<131.595 146.95 146.95 147.688 147.688 291.312 291.312 291.857>
VStem: 20 95.75<-87.999 -72 -72 472> 163.656 96.3438<248 312.1 248 328.083> 323.89 96.1104<82.7812 95.0781>
LayerCount: 2
Fore
SplineSet
83.84375 600 m 2
 355.15625 600 l 2
 387.104492188 600 420 568 420 536 c 2
 420 40 l 2
 420 8 388.002929688 -24 355.28125 -24 c 2
 228.0625 -24 l 2
 196.137695312 -24 164.21875 8 164.21875 40 c 2
 163.65625 312 l 1
 163.65625 312.099609375 l 2
 163.65625 344.06640625 196.033203125 376 227.5 376 c 2
 323.21875 376 l 1
 323.21875 472 l 1
 320.951171875 503.740234375 323.744140625 504 291.857421875 504 c 2
 291.3125 504 l 1
 147.6875 504 l 1
 146.950195312 504 l 2
 116.240234375 504 115.749023438 503.76953125 115.749023438 474.946289062 c 0
 115.749023438 473.99609375 115.75 473.013671875 115.75 472 c 2
 115.75 -72 l 2
 115.75 -103.998046875 115.97265625 -104 147.67578125 -104 c 2
 147.6875 -104 l 1
 420 -104 l 1
 419 -200 l 1
 83.84375 -200 l 2
 51.8935546875 -200 20 -168 20 -136 c 2
 20 536 l 2
 20 568 51.8935546875 600 83.84375 600 c 2
285.65625 280 m 0
 261.715820312 279.895507812 259.961914062 278.36328125 259.961914062 256.30859375 c 0
 259.961914062 253.811523438 259.984375 251.05078125 260 248 c 2
 260.5625 104 l 2
 260.690429688 72.0009765625 260.5625 72 276.559570312 72 c 2
 276.5625 72 l 1
 308.5625 72 l 1
 308.565429688 72 l 2
 322.586914062 72 323.889648438 72.0009765625 323.889648438 93.5615234375 c 0
 323.889648438 96.5947265625 323.86328125 100.053710938 323.84375 104 c 2
 323.28125 248 l 2
 323.154296875 279.75390625 323.797851562 280 292.081054688 280 c 2
 291.34375 280 l 2
 289.991210938 280 288.703125 280.00390625 287.469726562 280.00390625 c 0
 286.852539062 280.00390625 286.248046875 280.002929688 285.65625 280 c 0
EndSplineSet
Validated: 524289
EndChar

StartChar: A
Encoding: 65 65 34
Width: 424
Flags: HMW
HStem: -200 21G<20 116 20 20 308 404 308 308> -200 21G<20 116 20 20 308 404 308 308> 40 80<167 257 167 269.5 154.5 257> 580 20G<164 260 260 260> 580 20G<164 260 260 260>
LayerCount: 2
Fore
SplineSet
164 600 m 1xb0
 260 600 l 1
 404 -200 l 1
 308 -200 l 1
 269.5 40 l 1
 154.5 40 l 1
 116 -200 l 1
 20 -200 l 1
 164 600 l 1xb0
212 368 m 1
 167 120 l 1
 257 120 l 1
 212 368 l 1
EndSplineSet
Validated: 524289
EndChar

StartChar: B
Encoding: 66 66 35
Width: 360
Flags: HMW
HStem: -200 96 152.003 95.9965 504.003 95.9965
VStem: 20 95.9688<-88.6685 -73.3359 -73.3359 -72.001 -72.001 118.999 118.999 120.866 264.686 281 281 472> 243.938 96.0625<-72.001 120.999 120.999 136.499 279 472 472 488>
LayerCount: 2
Fore
SplineSet
20 600 m 1
 276.03125 600 l 2
 308.024414062 600 340 568 340 536 c 2
 340 248 l 1
 276 184 l 1
 340 152 l 1
 340 -136 l 2
 340 -168 307.930664062 -200 275.9375 -200 c 2
 20 -200 l 1
 20 600 l 1
142.28125 504 m 0
 118.220703125 503.89453125 115.913085938 502.345703125 115.913085938 479.907226562 c 0
 115.913085938 477.516601562 115.939453125 474.888671875 115.96875 472 c 2
 115.96875 281 l 2
 115.96875 248.37109375 115.975585938 248 147.96875 248 c 2
 211.71875 248 l 2
 243.62890625 248 243.9375 248 243.9375 279 c 2
 243.9375 472 l 2
 243.9375 504 243.930664062 504 211.9375 504 c 2
 147.96875 504 l 2
 146.622070312 504 145.33203125 504.00390625 144.095703125 504.00390625 c 0
 143.477539062 504.00390625 142.873046875 504.002929688 142.28125 504 c 0
142.28125 151.999023438 m 0
 116.235351562 151.880859375 115.96875 150.016601562 115.96875 120.866210938 c 0
 115.96875 120.255859375 115.96875 119.633789062 115.96875 118.999023438 c 2
 115.96875 -72.0009765625 l 1
 115.96875 -73.3359375 l 2
 115.96875 -104.000976562 116.192382812 -104.000976562 147.96875 -104.000976562 c 2
 211.9375 -104.000976562 l 2
 243.930664062 -104.000976562 243.9375 -104.000976562 243.9375 -72.0009765625 c 2
 243.9375 120.999023438 l 2
 243.9375 151.999023438 243.711914062 151.999023438 211.71875 151.999023438 c 2
 147.96875 151.999023438 l 2
 146.622070312 151.999023438 145.331054688 152.002929688 144.094726562 152.002929688 c 0
 143.4765625 152.002929688 142.872070312 152.001953125 142.28125 151.999023438 c 0
EndSplineSet
Validated: 524289
EndChar

StartChar: C
Encoding: 67 67 36
Width: 328
Flags: HMW
HStem: -200 96 503.906 95.9688
VStem: 20.001 96 212.001 96
LayerCount: 2
Fore
SplineSet
244.000976562 600 m 2
 275.98828125 600 308 567.986328125 308 535.999023438 c 2
 308 439.999023438 l 1
 212 439.999023438 l 1
 212 503.999023438 l 1
 148 503.905273438 l 2
 116 503.905273438 116 503.901367188 116 471.905273438 c 2
 116 -72.0009765625 l 2
 116 -103.700195312 116 -104.000976562 147.107421875 -104.000976562 c 2
 148 -104.000976562 l 1
 212 -104.000976562 l 1
 212 -40.0322265625 l 1
 308 -40.0009765625 l 1
 308 -136.000976562 l 2
 308 -168.000976562 276 -200.000976562 244 -200.000976562 c 2
 84 -200.000976562 l 2
 52 -200 20 -168.000976562 20 -136.000976562 c 2
 20 535.999023438 l 2
 20 567.935546875 51.873046875 599.875 83.8095703125 599.875 c 2
 84.0009765625 599.875 l 1
 244.000976562 600 l 2
EndSplineSet
Validated: 524289
EndChar

StartChar: D
Encoding: 68 68 37
Width: 328
Flags: HMW
HStem: -200 96 504.003 95.9965
VStem: 20 95.8438 211.906 96.0938
LayerCount: 2
Fore
SplineSet
20 600 m 1
 243.9375 600 l 2
 275.962890625 600 308 568 308 536 c 2
 308 -136 l 2
 308 -168 275.962890625 -200 243.9375 -200 c 2
 20 -200 l 1
 20 600 l 1
141.84375 504 m 0
 117.36328125 503.896484375 115.811523438 502.44921875 115.811523438 482.112304688 c 0
 115.811523438 479.158203125 115.844726562 475.805664062 115.844726562 472.000976562 c 2
 115.844726562 -71.9990234375 l 2
 115.844726562 -103.998046875 115.848632812 -103.999023438 145.495117188 -103.999023438 c 2
 145.500976562 -103.999023438 l 1
 180.125976562 -103.999023438 l 1
 180.137695312 -103.999023438 l 2
 211.8984375 -103.999023438 211.907226562 -103.997070312 211.907226562 -72.0517578125 c 2
 211.907226562 -71.9990234375 l 1
 211.907226562 472.000976562 l 2
 211.907226562 473.032226562 211.908203125 474.030273438 211.908203125 474.99609375 c 0
 211.908203125 503.76953125 211.408203125 504 180.646484375 504 c 2
 179.907226562 504 l 1
 147.875976562 504 l 2
 146.4453125 504 145.072265625 504.00390625 143.76171875 504.00390625 c 0
 143.106445312 504.00390625 142.466796875 504.002929688 141.84375 504 c 0
EndSplineSet
Validated: 524289
EndChar

StartChar: E
Encoding: 69 69 38
Width: 296
Flags: HMW
HStem: -200 96<116 276 116 276> 152 96<116 276 116 276> 504 96<116 276 116 116>
VStem: 20 96<-104 152 248 504> 20 256<-200 -104 152 248 504 600>
CounterMasks: 1 e0
LayerCount: 2
Fore
SplineSet
20 600 m 1xe8
 276 600 l 1
 276 504 l 1xe8
 116 504 l 1
 116 248 l 1xf0
 276 248 l 1
 276 152 l 1xe8
 116 152 l 1
 116 -104 l 1xf0
 276 -104 l 1
 276 -200 l 1
 20 -200 l 1
 20 600 l 1xe8
EndSplineSet
Validated: 1
EndChar

StartChar: F
Encoding: 70 70 39
Width: 296
Flags: HMW
HStem: -200 21G<20 116 20 20> -200 21G<20 116 20 20> 152 96<116 276 116 276> 504 96<116 276 116 116>
VStem: 20 96<-200 152 248 504> 20 256<152 248 504 600>
LayerCount: 2
Fore
SplineSet
20 600 m 1xb4
 276 600 l 1
 276 504 l 1xb4
 116 504 l 1
 116 248 l 1xb8
 276 248 l 1
 276 152 l 1xb4
 116 152 l 1
 116 -200 l 1
 20 -200 l 1xb8
 20 600 l 1xb4
EndSplineSet
Validated: 1
EndChar

StartChar: G
Encoding: 71 71 40
Width: 344
Flags: HMW
HStem: -200 96 152 96 503.906 95.9688
VStem: 20.001 96 164.001 160 228.001 96
LayerCount: 2
Fore
SplineSet
260.000976562 600 m 2xf4
 291.990234375 600 324 567.989257812 324 535.999023438 c 2
 324 439.999023438 l 1
 228 439.999023438 l 1
 228 503.999023438 l 1
 148 503.905273438 l 2
 116 503.905273438 116 503.901367188 116 471.905273438 c 2
 116 -72.0009765625 l 2
 116 -103.700195312 116 -104.000976562 147.107421875 -104.000976562 c 2
 148 -104.000976562 l 1
 228 -104.000976562 l 1
 228 151.967773438 l 1xf4
 164 151.999023438 l 1
 164 247.999023438 l 1
 324 247.999023438 l 1xf8
 324 -136.000976562 l 2
 324 -168.001953125 292 -200.000976562 260 -200.000976562 c 2
 84 -200.000976562 l 2
 52 -200 20 -168.001953125 20 -136.000976562 c 2
 20 535.999023438 l 2
 20 567.936523438 51.873046875 599.875 83.8095703125 599.875 c 2
 84.0009765625 599.875 l 1
 260.000976562 600 l 2xf4
EndSplineSet
Validated: 524289
EndChar

StartChar: H
Encoding: 72 72 41
Width: 328
Flags: HMW
HStem: -200 21G<20 116 20 20 212 308 212 212> -200 21G<20 116 20 20 212 308 212 212> 152 96<116 212 116 212> 580 20G<20 116 116 116 212 308 308 308> 580 20G<20 116 116 116 212 308 308 308>
VStem: 20 96<-200 152 248 600> 212 96<-200 152 152 152 248 600 -200 600>
LayerCount: 2
Fore
SplineSet
20 600 m 1xb6
 116 600 l 1
 116 248 l 1
 212 248 l 1
 212 600 l 1
 308 600 l 1
 308 -200 l 1
 212 -200 l 1
 212 152 l 1
 116 152 l 1
 116 -200 l 1
 20 -200 l 1
 20 600 l 1xb6
EndSplineSet
Validated: 1
EndChar

StartChar: I
Encoding: 73 73 42
Width: 136
Flags: HMW
HStem: -200 21G<20 116 20 20> -200 21G<20 116 20 20> 580 20G<20 116 116 116> 580 20G<20 116 116 116>
VStem: 20 96<-200 600 -200 600>
LayerCount: 2
Fore
SplineSet
20 600 m 1xa8
 116 600 l 1
 116 -200 l 1
 20 -200 l 1
 20 600 l 1xa8
EndSplineSet
Validated: 1
EndChar

StartChar: J
Encoding: 74 74 43
Width: 312
Flags: HMW
HStem: -200 96<67.9873 148 147.988 148 148 166.5 166.5 166.506 166.506 181.179 147.988 228> 580 20G<196.001 292 292 292> 580 20G<196.001 292 292 292>
VStem: 20.001 96 196.001 96
LayerCount: 2
Fore
SplineSet
196.000976562 600 m 1xd8
 292 600 l 1
 292 -136 l 2
 292 -168 260 -200 228 -200 c 2
 84 -200 l 2
 51.974609375 -200 20 -168 20 -136 c 2
 20 120 l 1
 116 120 l 1
 116 -72 l 2
 116 -103.998046875 116.208007812 -104 147.98828125 -104 c 2
 148 -104 l 1
 166.5 -104 l 1
 166.505859375 -104 l 2
 195.8515625 -104 196.000976562 -103.999023438 196.000976562 -72.966796875 c 2
 196.000976562 -72 l 1
 196.000976562 600 l 1xd8
EndSplineSet
Validated: 524289
EndChar

StartChar: K
Encoding: 75 75 44
Width: 360
VWidth: 600
Flags: W
HStem: -200 21G<20 115.531 243.504 339.532> 152 96<116.001 220.375> 580 20G<20 116 242.569 339.997>
VStem: 20 95.501<-200 152 248 600> 243.504 96<-200 152>
LayerCount: 2
Fore
SplineSet
20 600 m 5
 116 600 l 5
 116 264 l 6
 116 248 116 248 132 248 c 6
 180 248 l 6
 196 248 220 248 220 264 c 5
 243.997070312 600 l 5
 339.997070312 600 l 5
 308 248 l 5
 276 184 l 5
 340 152 l 5
 339.50390625 -200 l 5
 243.50390625 -200 l 5
 244 136 l 6
 244 152 244 152 228 152 c 6
 131.997070312 152 l 6
 115.997070312 152 115.997070312 152 115.997070312 136 c 6
 115.500976562 -200 l 5
 20 -200 l 5
 20 600 l 5
EndSplineSet
Validated: 524289
EndChar

StartChar: L
Encoding: 76 76 45
Width: 264
Flags: HMW
HStem: -200 96<116 244 116 244> 580 20G<20 116 116 116> 580 20G<20 116 116 116>
VStem: 20 96<-104 600 -104 600 -104 600>
LayerCount: 2
Fore
SplineSet
20 600 m 1xd0
 116 600 l 1
 116 -104 l 1
 244 -104 l 1
 244 -200 l 1
 20 -200 l 1
 20 600 l 1xd0
EndSplineSet
Validated: 1
EndChar

StartChar: M
Encoding: 77 77 46
Width: 392
Flags: HMW
HStem: -200 21G<20 116 20 20 276 372 276 276> -200 21G<20 116 20 20 276 372 276 276> 580 20G<20 84 84 84 308 372 372 372> 580 20G<20 84 84 84 308 372 372 372>
VStem: 20 64<-200 600 600 600> 20 96<-200 264 -200 600> 276 96<-200 264 264 264> 308 64<-200 600>
LayerCount: 2
Fore
SplineSet
20 600 m 1xa8
 84 600 l 1
 196.09375 248 l 1
 308 600 l 1
 372 600 l 1xa9
 372 -200 l 1
 276 -200 l 1
 276 264 l 1
 196 24 l 1
 116 264 l 1
 116 -200 l 1
 20 -200 l 1xa6
 20 600 l 1xa8
EndSplineSet
Validated: 524289
EndChar

StartChar: N
Encoding: 78 78 47
Width: 392
Flags: HMW
HStem: -200 21G<20 116.031 20 20 275.969 372 275.969 275.969> -200 21G<20 116.031 20 20 275.969 372 275.969 275.969> 580 20G<20 116.094 116.094 116.094 275.969 372 372 372> 580 20G<20 116.094 116.094 116.094 275.969 372 372 372>
VStem: 20 96.0312<-200 600> 275.969 96.0312<-200 600 56 600 -200 600>
LayerCount: 2
Fore
SplineSet
20 600 m 1xac
 116.09375 600 l 1
 275.96875 56 l 1
 275.96875 600 l 1
 372 600 l 1
 372 -200 l 1
 275.96875 -200 l 1
 115.6875 344 l 1
 116.03125 -200 l 1
 20 -200 l 1
 20 600 l 1xac
EndSplineSet
Validated: 524289
EndChar

StartChar: O
Encoding: 79 79 48
Width: 328
Flags: HMW
HStem: -200 96 504.003 95.9965
VStem: 20 96<-88.0103 -72.0234 -72.0234 -71.998 -71.998 472.002> 212 96<-72.0811 -71.999 -71.999 472.001 472.001 474.861 474.399 489.315>
LayerCount: 2
Fore
SplineSet
84 600 m 2
 244 600 l 2
 276 600 308 568 308 536 c 2
 308 -136 l 2
 308 -168 276 -200 244 -200 c 2
 84 -200 l 2
 52 -200 20 -168 20 -136 c 2
 20 536 l 2
 20 568 52 600 84 600 c 2
142 504 m 0
 117.506835938 503.896484375 115.967773438 502.446289062 115.967773438 482.030273438 c 0
 115.967773438 479.096679688 116 475.771484375 116 472.001953125 c 2
 116 -71.998046875 l 1
 116 -72.0234375 l 2
 116 -103.997070312 116.00390625 -103.998046875 145.619140625 -103.998046875 c 2
 145.625 -103.998046875 l 1
 180.25 -103.998046875 l 1
 180.26171875 -103.998046875 l 2
 211.986328125 -103.998046875 212 -103.99609375 212 -72.0810546875 c 2
 212 -71.9990234375 l 1
 212 472.000976562 l 2
 212 472.984375 212 473.9375 212 474.861328125 c 0
 212 503.768554688 211.5234375 504 180.73828125 504 c 2
 179.999023438 504 l 1
 147.999023438 504 l 2
 146.5703125 504 145.209960938 504.00390625 143.908203125 504.00390625 c 0
 143.2578125 504.00390625 142.622070312 504.002929688 142 504 c 0
EndSplineSet
Validated: 524289
EndChar

StartChar: P
Encoding: 80 80 49
Width: 360
Flags: HMW
HStem: -200 21G<20 115.719 20 20> -200 21G<20 115.719 20 20> 152 96<147.937 229.905 147.937 276 116 229.905> 504.23 95.7702
VStem: 20 95.9375 243.875 96.125
LayerCount: 2
Fore
SplineSet
20 600 m 1xbc
 276.03125 600 l 2
 308.015625 600 340 568 340 536 c 2
 340 216 l 2
 340 184 308 152 276 152 c 2
 116 152 l 1
 115.71875 -200 l 1
 20 -200 l 1
 20 600 l 1xbc
133.53125 504.21875 m 0
 132.258789062 504.1953125 131.060546875 504.125 129.936523438 504 c 0
 116.455078125 502.5 115.936523438 496 115.936523438 472 c 2
 115.936523438 281 l 2
 115.936523438 248.37109375 115.952148438 248 147.936523438 248 c 2
 229.905273438 248 l 1
 243.38671875 249.4296875 243.874023438 256.119140625 243.874023438 279 c 2
 243.874023438 472 l 1
 243.874023438 472.09375 l 2
 243.874023438 504 243.858398438 504 211.905273438 504 c 2
 147.936523438 504 l 2
 142.591796875 504 138.361328125 504.229492188 134.80078125 504.229492188 c 0
 134.368164062 504.229492188 133.9453125 504.2265625 133.53125 504.21875 c 0
EndSplineSet
Validated: 524289
EndChar

StartChar: Q
Encoding: 81 81 50
Width: 344
Flags: HMW
HStem: -200 96 40 96 504.003 95.9965
VStem: 20 96<-87.998 -71.999 -71.999 472.001> 180 144<40.001 136.001 136.001 136.001> 228 96<-71.999 40.001 40.001 40.001 136.001 472.001 472.001 472.517>
LayerCount: 2
Fore
SplineSet
84 600 m 2xf4
 196 600 l 1
 260 600 l 2
 292.025390625 600 324 568 324 536 c 2
 324 -136 l 2
 324 -168 292.025390625 -200 260 -200 c 2
 196 -200 l 1
 84 -200 l 2
 51.974609375 -200 20 -168 20 -136 c 2
 20 536 l 2
 20 568 51.974609375 600 84 600 c 2xf4
142.28125 504 m 0
 116.442382812 503.887695312 115.999023438 502.125976562 115.999023438 474.986328125 c 0
 115.999023438 474.0234375 116 473.028320312 116 472.000976562 c 2
 116 -71.9990234375 l 2
 116 -103.997070312 116.209960938 -103.999023438 147.98828125 -103.999023438 c 2
 148 -103.999023438 l 1
 196 -103.999023438 l 1
 196.01171875 -103.999023438 l 2
 227.791992188 -103.999023438 228 -103.997070312 228 -71.9990234375 c 2
 228 40.0009765625 l 1xf4
 180 40.0009765625 l 1
 180 136.000976562 l 1xf8
 228 136.000976562 l 1
 228 472.000976562 l 2
 228 473.032226562 228.000976562 474.030273438 228.000976562 474.99609375 c 0
 228.000976562 503.76953125 227.500976562 504 196.739257812 504 c 2
 196 504 l 1
 148 504 l 2
 146.643554688 504 145.346679688 504.00390625 144.104492188 504.00390625 c 0
 143.483398438 504.00390625 142.875976562 504.002929688 142.28125 504 c 0
EndSplineSet
Validated: 524289
EndChar

StartChar: R
Encoding: 82 82 51
Width: 360
Flags: HMW
HStem: -200 21G<20 115.719 20 20 243.656 339.594 243.656 243.656> -200 21G<20 115.719 20 20 243.656 339.594 243.656 243.656> 152 96<147.938 148.031 148.031 211.75> 504.229 95.7705<134.585 136.582>
VStem: 20 95.9766<125.912 139.572 125.912 600> 243.656 95.9375<-200 -200>
LayerCount: 2
Fore
SplineSet
20 600 m 1xbc
 276.03125 600 l 2
 308.015625 600 340 568 340 536 c 2
 339.6875 248 l 1
 275.71875 184 l 1
 339.90625 152 l 1
 339.59375 -200 l 1
 243.65625 -200 l 1
 243.96875 121 l 2
 243.969726562 121.779296875 243.970703125 122.5390625 243.970703125 123.279296875 c 0
 243.970703125 152 242.930664062 152 211.75 152 c 2
 148.03125 152 l 2
 118.639648438 152 115.9765625 152 115.9765625 127.143554688 c 0
 115.9765625 124.680664062 116.001953125 121.974609375 116.03125 119 c 2
 115.71875 -200 l 1
 20 -200 l 1
 20 600 l 1xbc
133.53125 504.21875 m 0
 132.258789062 504.1953125 131.061523438 504.125 129.9375 504 c 0
 116.456054688 502.5 115.9375 496 115.9375 472 c 2
 115.9375 281 l 2
 115.9375 248.37109375 115.953125 248 147.9375 248 c 2
 229.90625 248 l 1
 243.387695312 249.4296875 243.875 256.119140625 243.875 279 c 2
 243.875 472 l 1
 243.875 472.09375 l 2
 243.875 504 243.859375 504 211.90625 504 c 2
 147.9375 504 l 2
 142.592773438 504 138.362304688 504.229492188 134.801757812 504.229492188 c 0
 134.368164062 504.229492188 133.9453125 504.2265625 133.53125 504.21875 c 0
EndSplineSet
Validated: 524289
EndChar

StartChar: S
Encoding: 83 83 52
Width: 328
Flags: HMW
HStem: -200 96<67.9551 180.156 149.25 180.156 180.156 196.139 149.25 243.75> 152 96<67.9551 243.75 148.188 180.156 180.156 180.162> 504 96<132.207 148.188 148.188 180>
VStem: 20 96.2188<-152 -40 264 280 280 376 376 472> 212.125 95.5625<-72 -40 -40 56 56 120 120 136>
CounterMasks: 1 e0
LayerCount: 2
Fore
SplineSet
83.9375 600 m 2
 243.75 600 l 2
 275.71484375 600 307.6875 568 307.6875 536 c 2
 308 440 l 1
 212.09375 440 l 1
 212.09375 472.25 l 2
 211.98828125 504 212 504 180 504 c 2
 148.1875 504 l 2
 116.225585938 504 116.21875 504 116.21875 472 c 2
 116.21875 376 l 1
 116.21875 280 l 2
 116.21875 248 116.225585938 248 148.1875 248 c 2
 243.75 248 l 2
 275.71484375 248 307.6875 216 307.6875 184 c 2
 307.6875 -136 l 2
 307.6875 -168 275.71484375 -200 243.75 -200 c 2
 83.9375 -200 l 2
 51.97265625 -200 20 -168 20 -136 c 2
 20.3125 -40 l 1
 116.21875 -40 l 1
 116 -72 l 2
 116 -104 116 -103.999023438 149.25 -104 c 2
 180.15625 -104 l 2
 212.12109375 -104 212.125 -104 212.125 -72 c 2
 212.125 -40 l 1
 212.125 56 l 1
 212.125 120 l 2
 212.125 151.999023438 212.12109375 152 180.162109375 152 c 2
 180.15625 152 l 1
 83.9375 152 l 2
 51.97265625 152 20 184 20 216 c 2
 20 536 l 2
 20 568 51.97265625 600 83.9375 600 c 2
EndSplineSet
Validated: 524289
EndChar

StartChar: T
Encoding: 84 84 53
Width: 325
Flags: HMW
HStem: -200.031 21G<115 210 115 115> -200.031 21G<115 210 115 115> 505 95<20 115 20 305 210 305 210 210>
VStem: 115 95<-200.031 505 -200.031 505>
LayerCount: 2
Fore
SplineSet
20 600 m 1xb0
 305 600 l 1
 305 505 l 1
 210 505 l 1
 210 -200.03125 l 1
 115 -200.03125 l 1
 115 505 l 1
 20 505 l 1
 20 600 l 1xb0
EndSplineSet
Validated: 524289
EndChar

StartChar: U
Encoding: 85 85 54
Width: 328
Flags: HMW
HStem: -200 96<67.9873 148 147.988 148 148 180 180 180.012 180.012 195.902 147.988 244> 580 20G<20 116 116 116 212 308 308 308> 580 20G<20 116 116 116 212 308 308 308>
VStem: 20 96<-87.999 -72 -72 600> 212 96<-72 600>
LayerCount: 2
Fore
SplineSet
20 600 m 1xd8
 116 600 l 1
 116 -72 l 2
 116 -103.998046875 116.209960938 -104 147.98828125 -104 c 2
 148 -104 l 1
 180 -104 l 1
 180.01171875 -104 l 2
 211.791992188 -104 212 -103.998046875 212 -72 c 2
 212 600 l 1
 308 600 l 1
 308 -136 l 2
 308 -168 276.025390625 -200 244 -200 c 2
 180 -200 l 1
 84 -200 l 2
 51.974609375 -200 20 -168 20 -136 c 2
 20 600 l 1xd8
EndSplineSet
Validated: 524289
EndChar

StartChar: V
Encoding: 86 86 55
Width: 424
Flags: HMW
HStem: -200 21G<164 260 164 164> -200 21G<164 260 164 164> 580 20G<20 116 116 116 308 404 404 404> 580 20G<20 116 116 116 308 404 404 404>
VStem: 20 96<600 600> 308 96<600 600>
LayerCount: 2
Fore
SplineSet
20 600 m 1xac
 116 600 l 1
 212 0 l 1
 308 600 l 1
 404 600 l 1
 260 -200 l 1
 164 -200 l 1
 20 600 l 1xac
EndSplineSet
Validated: 1
EndChar

StartChar: W
Encoding: 87 87 56
Width: 392
Flags: HMW
HStem: -200 21G<20 84 20 20 308 372 308 308> -200 21G<20 84 20 20 308 372 308 308> 580 20G<20 116 116 116 276 372 372 372> 580 20G<20 116 116 116 276 372 372 372>
VStem: 20 64<-200 600> 20 96<136 600 136 600 136 600> 276 96<136 600 -200 600> 308 64<-200 600>
LayerCount: 2
Fore
SplineSet
20 600 m 1xa4
 116 600 l 1
 116 136 l 1
 196 376 l 1
 276 136 l 1
 276 600 l 1
 372 600 l 1xa6
 372 -200 l 1
 308 -200 l 1
 196.09375 152 l 1
 84 -200 l 1
 20 -200 l 1xa9
 20 600 l 1xa4
EndSplineSet
Validated: 524289
EndChar

StartChar: X
Encoding: 88 88 57
Width: 392
Flags: HMW
HStem: -200 21G<20 116 20 20 276 372 276 276> -200 21G<20 116 20 20 276 372 276 276> 580 20G<20 116 116 116 276 372 372 372> 580 20G<20 116 116 116 276 372 372 372>
LayerCount: 2
Fore
SplineSet
20 600 m 1x60
 116 600 l 1
 196 264 l 1
 276 600 l 1x60
 372 600 l 1
 276 184 l 1
 372 -200 l 1
 276 -200 l 1
 196 88 l 1
 116 -200 l 1x90
 20 -200 l 1
 116 184 l 1
 20 600 l 1x60
EndSplineSet
Validated: 1
EndChar

StartChar: Y
Encoding: 89 89 58
Width: 424
Flags: HMW
HStem: -200 21G<164 260 164 164> -200 21G<164 260 164 164> 580 20G<20 116 116 116 308 404 404 404> 580 20G<20 116 116 116 308 404 404 404>
VStem: 164 96<-200 56 56 120 -200 120>
LayerCount: 2
Fore
SplineSet
20 600 m 1xa8
 116 600 l 1
 212 248 l 1
 308 600 l 1
 404 600 l 1
 260 120 l 1
 260 56 l 1
 260 -200 l 1
 164 -200 l 1
 164 56 l 1
 164 120 l 1
 20 600 l 1xa8
EndSplineSet
Validated: 1
EndChar

StartChar: Z
Encoding: 90 90 59
Width: 328
Flags: HMW
HStem: -200 96<20 308 139 308 139 308> 504 96<20 189 20 212>
VStem: 20 288<-200 -104>
LayerCount: 2
Fore
SplineSet
20 600 m 1
 212 600 l 1
 308 600 l 1
 139 -104 l 1
 308 -104 l 1
 308 -200 l 1
 116 -200 l 1
 20 -200 l 1
 189 504 l 1
 20 504 l 1
 20 600 l 1
EndSplineSet
Validated: 1
EndChar

StartChar: bracketleft
Encoding: 91 91 60
Width: 232
Flags: HMW
HStem: -200 96<116 212 116 212> 504 96<116 212 116 116>
VStem: 20 96<-104 504 -104 600> 20 192<-200 -104 504 600>
LayerCount: 2
Fore
SplineSet
20 600 m 1xd0
 212 600 l 1
 212 504 l 1xd0
 116 504 l 1
 116 -104 l 1xe0
 212 -104 l 1
 212 -200 l 1
 20 -200 l 1
 20 600 l 1xd0
EndSplineSet
Validated: 1
EndChar

StartChar: backslash
Encoding: 92 92 61
Width: 312
Flags: HMW
HStem: -200 21G<196 292 196 196> -200 21G<196 292 196 196> 580 20G<20 116 116 116> 580 20G<20 116 116 116>
VStem: 20 272
LayerCount: 2
Fore
SplineSet
20 600 m 1xa8
 116 600 l 1
 292 -200 l 1
 196 -200 l 1
 20 600 l 1xa8
EndSplineSet
Validated: 1
EndChar

StartChar: bracketright
Encoding: 93 93 62
Width: 231
Flags: HMW
HStem: -200 96<20 115.999 20 211.999 20 115.999> 504 96<20 115.999 20 211.999>
VStem: 20 191.999<-200 -104 -104 -104 504 600 -200 600> 115.999 96<-104 504 504 504>
LayerCount: 2
Fore
SplineSet
211.999023438 600 m 1xe0
 211.999023438 -200 l 1
 20 -200 l 1
 20 -104 l 1xe0
 115.999023438 -104 l 1
 115.999023438 504 l 1xd0
 20 504 l 1
 20 600 l 1
 211.999023438 600 l 1xe0
EndSplineSet
Validated: 524289
EndChar

StartChar: asciicircum
Encoding: 94 94 63
Width: 365
Flags: HMW
HStem: 388 212<20 220 20 220 145 345 145 270>
VStem: 20 325<388 388>
LayerCount: 2
Fore
SplineSet
145 600 m 1
 220 600 l 1
 345 388 l 1
 270 388 l 1
 182 525 l 1
 95 388 l 1
 20 388 l 1
 145 600 l 1
EndSplineSet
Validated: 1
EndChar

StartChar: underscore
Encoding: 95 95 64
Width: 440
Flags: HMW
HStem: -200 96<20 420 20 420>
LayerCount: 2
Fore
SplineSet
20 -104 m 1
 420 -104 l 1
 420 -200 l 1
 20 -200 l 1
 20 -104 l 1
EndSplineSet
Validated: 1
EndChar

StartChar: grave
Encoding: 96 96 65
Width: 184
Flags: HMW
HStem: 424 176<68 116 20 164 68 68>
VStem: 20 144
LayerCount: 2
Fore
SplineSet
20 600 m 1
 116 600 l 1
 164 424 l 1
 68 424 l 1
 20 600 l 1
EndSplineSet
Validated: 1
EndChar

StartChar: a
Encoding: 97 97 66
Width: 424
Flags: HMW
HStem: -200 21G<20 116 20 20 308 404 308 308> -200 21G<20 116 20 20 308 404 308 308> 40 80<167 257 167 269.5 154.5 257> 580 20G<164 260 260 260> 580 20G<164 260 260 260>
LayerCount: 2
Fore
SplineSet
164 600 m 1xb0
 260 600 l 1
 404 -200 l 1
 308 -200 l 1
 269.5 40 l 1
 154.5 40 l 1
 116 -200 l 1
 20 -200 l 1
 164 600 l 1xb0
212 368 m 1
 167 120 l 1
 257 120 l 1
 212 368 l 1
EndSplineSet
Validated: 524289
EndChar

StartChar: b
Encoding: 98 98 67
Width: 360
Flags: HMW
HStem: -200 96 152.003 95.9965 504.003 95.9965
VStem: 20 95.9688<-88.6685 -73.3359 -73.3359 -72.001 -72.001 118.999 118.999 120.866 264.686 281 281 472> 243.938 96.0625<-72.001 120.999 120.999 136.499 279 472 472 488>
LayerCount: 2
Fore
SplineSet
20 600 m 1
 276.03125 600 l 2
 308.024414062 600 340 568 340 536 c 2
 340 248 l 1
 276 184 l 1
 340 152 l 1
 340 -136 l 2
 340 -168 307.930664062 -200 275.9375 -200 c 2
 20 -200 l 1
 20 600 l 1
142.28125 504 m 0
 118.220703125 503.89453125 115.913085938 502.345703125 115.913085938 479.907226562 c 0
 115.913085938 477.516601562 115.939453125 474.888671875 115.96875 472 c 2
 115.96875 281 l 2
 115.96875 248.37109375 115.975585938 248 147.96875 248 c 2
 211.71875 248 l 2
 243.62890625 248 243.9375 248 243.9375 279 c 2
 243.9375 472 l 2
 243.9375 504 243.930664062 504 211.9375 504 c 2
 147.96875 504 l 2
 146.622070312 504 145.33203125 504.00390625 144.095703125 504.00390625 c 0
 143.477539062 504.00390625 142.873046875 504.002929688 142.28125 504 c 0
142.28125 151.999023438 m 0
 116.235351562 151.880859375 115.96875 150.016601562 115.96875 120.866210938 c 0
 115.96875 120.255859375 115.96875 119.633789062 115.96875 118.999023438 c 2
 115.96875 -72.0009765625 l 1
 115.96875 -73.3359375 l 2
 115.96875 -104.000976562 116.192382812 -104.000976562 147.96875 -104.000976562 c 2
 211.9375 -104.000976562 l 2
 243.930664062 -104.000976562 243.9375 -104.000976562 243.9375 -72.0009765625 c 2
 243.9375 120.999023438 l 2
 243.9375 151.999023438 243.711914062 151.999023438 211.71875 151.999023438 c 2
 147.96875 151.999023438 l 2
 146.622070312 151.999023438 145.331054688 152.002929688 144.094726562 152.002929688 c 0
 143.4765625 152.002929688 142.872070312 152.001953125 142.28125 151.999023438 c 0
EndSplineSet
Validated: 524289
EndChar

StartChar: c
Encoding: 99 99 68
Width: 328
Flags: HMW
HStem: -200 96 503.906 95.9688
VStem: 20.001 96 212.001 96
LayerCount: 2
Fore
SplineSet
244.000976562 600 m 2
 275.98828125 600 308 567.986328125 308 535.999023438 c 2
 308 439.999023438 l 1
 212 439.999023438 l 1
 212 503.999023438 l 1
 148 503.905273438 l 2
 116 503.905273438 116 503.901367188 116 471.905273438 c 2
 116 -72.0009765625 l 2
 116 -103.700195312 116 -104.000976562 147.107421875 -104.000976562 c 2
 148 -104.000976562 l 1
 212 -104.000976562 l 1
 212 -40.0322265625 l 1
 308 -40.0009765625 l 1
 308 -136.000976562 l 2
 308 -168.000976562 276 -200.000976562 244 -200.000976562 c 2
 84 -200.000976562 l 2
 52 -200 20 -168.000976562 20 -136.000976562 c 2
 20 535.999023438 l 2
 20 567.935546875 51.873046875 599.875 83.8095703125 599.875 c 2
 84.0009765625 599.875 l 1
 244.000976562 600 l 2
EndSplineSet
Validated: 524289
EndChar

StartChar: d
Encoding: 100 100 69
Width: 328
Flags: HMW
HStem: -200 96 504.003 95.9965
VStem: 20 95.8438 211.906 96.0938
LayerCount: 2
Fore
SplineSet
20 600 m 1
 243.9375 600 l 2
 275.962890625 600 308 568 308 536 c 2
 308 -136 l 2
 308 -168 275.962890625 -200 243.9375 -200 c 2
 20 -200 l 1
 20 600 l 1
141.84375 504 m 0
 117.36328125 503.896484375 115.811523438 502.44921875 115.811523438 482.112304688 c 0
 115.811523438 479.158203125 115.844726562 475.805664062 115.844726562 472.000976562 c 2
 115.844726562 -71.9990234375 l 2
 115.844726562 -103.998046875 115.848632812 -103.999023438 145.495117188 -103.999023438 c 2
 145.500976562 -103.999023438 l 1
 180.125976562 -103.999023438 l 1
 180.137695312 -103.999023438 l 2
 211.8984375 -103.999023438 211.907226562 -103.997070312 211.907226562 -72.0517578125 c 2
 211.907226562 -71.9990234375 l 1
 211.907226562 472.000976562 l 2
 211.907226562 473.032226562 211.908203125 474.030273438 211.908203125 474.99609375 c 0
 211.908203125 503.76953125 211.408203125 504 180.646484375 504 c 2
 179.907226562 504 l 1
 147.875976562 504 l 2
 146.4453125 504 145.072265625 504.00390625 143.76171875 504.00390625 c 0
 143.106445312 504.00390625 142.466796875 504.002929688 141.84375 504 c 0
EndSplineSet
Validated: 524289
EndChar

StartChar: e
Encoding: 101 101 70
Width: 296
Flags: HMW
HStem: -200 96<116 276 116 276> 152 96<116 276 116 276> 504 96<116 276 116 116>
VStem: 20 96<-104 152 248 504> 20 256<-200 -104 152 248 504 600>
CounterMasks: 1 e0
LayerCount: 2
Fore
SplineSet
20 600 m 1xe8
 276 600 l 1
 276 504 l 1xe8
 116 504 l 1
 116 248 l 1xf0
 276 248 l 1
 276 152 l 1xe8
 116 152 l 1
 116 -104 l 1xf0
 276 -104 l 1
 276 -200 l 1
 20 -200 l 1
 20 600 l 1xe8
EndSplineSet
Validated: 1
EndChar

StartChar: f
Encoding: 102 102 71
Width: 296
Flags: HMW
HStem: -200 21G<20 116 20 20> -200 21G<20 116 20 20> 152 96<116 276 116 276> 504 96<116 276 116 116>
VStem: 20 96<-200 152 248 504> 20 256<152 248 504 600>
LayerCount: 2
Fore
SplineSet
20 600 m 1xb4
 276 600 l 1
 276 504 l 1xb4
 116 504 l 1
 116 248 l 1xb8
 276 248 l 1
 276 152 l 1xb4
 116 152 l 1
 116 -200 l 1
 20 -200 l 1xb8
 20 600 l 1xb4
EndSplineSet
Validated: 1
EndChar

StartChar: g
Encoding: 103 103 72
Width: 344
Flags: HMW
HStem: -200 96 152 96 503.906 95.9688
VStem: 20.001 96 164.001 160 228.001 96
LayerCount: 2
Fore
SplineSet
260.000976562 600 m 2xf4
 291.990234375 600 324 567.989257812 324 535.999023438 c 2
 324 439.999023438 l 1
 228 439.999023438 l 1
 228 503.999023438 l 1
 148 503.905273438 l 2
 116 503.905273438 116 503.901367188 116 471.905273438 c 2
 116 -72.0009765625 l 2
 116 -103.700195312 116 -104.000976562 147.107421875 -104.000976562 c 2
 148 -104.000976562 l 1
 228 -104.000976562 l 1
 228 151.967773438 l 1xf4
 164 151.999023438 l 1
 164 247.999023438 l 1
 324 247.999023438 l 1xf8
 324 -136.000976562 l 2
 324 -168.001953125 292 -200.000976562 260 -200.000976562 c 2
 84 -200.000976562 l 2
 52 -200 20 -168.001953125 20 -136.000976562 c 2
 20 535.999023438 l 2
 20 567.936523438 51.873046875 599.875 83.8095703125 599.875 c 2
 84.0009765625 599.875 l 1
 260.000976562 600 l 2xf4
EndSplineSet
Validated: 524289
EndChar

StartChar: h
Encoding: 104 104 73
Width: 328
Flags: HMW
HStem: -200 21G<20 116 20 20 212 308 212 212> -200 21G<20 116 20 20 212 308 212 212> 152 96<116 212 116 212> 580 20G<20 116 116 116 212 308 308 308> 580 20G<20 116 116 116 212 308 308 308>
VStem: 20 96<-200 152 248 600> 212 96<-200 152 152 152 248 600 -200 600>
LayerCount: 2
Fore
SplineSet
20 600 m 1xb6
 116 600 l 1
 116 248 l 1
 212 248 l 1
 212 600 l 1
 308 600 l 1
 308 -200 l 1
 212 -200 l 1
 212 152 l 1
 116 152 l 1
 116 -200 l 1
 20 -200 l 1
 20 600 l 1xb6
EndSplineSet
Validated: 1
EndChar

StartChar: i
Encoding: 105 105 74
Width: 136
Flags: HMW
HStem: -200 21G<20 116 20 20> -200 21G<20 116 20 20> 580 20G<20 116 116 116> 580 20G<20 116 116 116>
VStem: 20 96<-200 600 -200 600>
LayerCount: 2
Fore
SplineSet
20 600 m 1xa8
 116 600 l 1
 116 -200 l 1
 20 -200 l 1
 20 600 l 1xa8
EndSplineSet
Validated: 1
EndChar

StartChar: j
Encoding: 106 106 75
Width: 312
Flags: HMW
HStem: -200 96<67.9873 148 147.988 148 148 166.5 166.5 166.506 166.506 181.179 147.988 228> 580 20G<196.001 292 292 292> 580 20G<196.001 292 292 292>
VStem: 20.001 96 196.001 96
LayerCount: 2
Fore
SplineSet
196.000976562 600 m 1xd8
 292 600 l 1
 292 -136 l 2
 292 -168 260 -200 228 -200 c 2
 84 -200 l 2
 51.974609375 -200 20 -168 20 -136 c 2
 20 120 l 1
 116 120 l 1
 116 -72 l 2
 116 -103.998046875 116.208007812 -104 147.98828125 -104 c 2
 148 -104 l 1
 166.5 -104 l 1
 166.505859375 -104 l 2
 195.8515625 -104 196.000976562 -103.999023438 196.000976562 -72.966796875 c 2
 196.000976562 -72 l 1
 196.000976562 600 l 1xd8
EndSplineSet
Validated: 524289
EndChar

StartChar: k
Encoding: 107 107 76
Width: 360
VWidth: 600
Flags: HMW
HStem: -200 21G<20 115.531 243.504 339.532> 152 96<116.001 220.375> 580 20G<20 116 242.569 339.997>
VStem: 20 95.501<-200 152 248 600> 243.504 96<-200 152>
LayerCount: 2
Fore
SplineSet
20 600 m 5
 116 600 l 5
 116 264 l 6
 116 248 116 248 132 248 c 6
 180 248 l 6
 196 248 220 248 220 264 c 5
 243.997070312 600 l 5
 339.997070312 600 l 5
 308 248 l 5
 276 184 l 5
 340 152 l 5
 339.50390625 -200 l 5
 243.50390625 -200 l 5
 244 136 l 6
 244 152 244 152 228 152 c 6
 131.997070312 152 l 6
 115.997070312 152 115.997070312 152 115.997070312 136 c 6
 115.500976562 -200 l 5
 20 -200 l 5
 20 600 l 5
EndSplineSet
Validated: 524289
EndChar

StartChar: l
Encoding: 108 108 77
Width: 264
Flags: HMW
HStem: -200 96<116 244 116 244> 580 20G<20 116 116 116> 580 20G<20 116 116 116>
VStem: 20 96<-104 600 -104 600 -104 600>
LayerCount: 2
Fore
SplineSet
20 600 m 1xd0
 116 600 l 1
 116 -104 l 1
 244 -104 l 1
 244 -200 l 1
 20 -200 l 1
 20 600 l 1xd0
EndSplineSet
Validated: 1
EndChar

StartChar: m
Encoding: 109 109 78
Width: 392
Flags: HMW
HStem: -200 21G<20 116 20 20 276 372 276 276> -200 21G<20 116 20 20 276 372 276 276> 580 20G<20 84 84 84 308 372 372 372> 580 20G<20 84 84 84 308 372 372 372>
VStem: 20 64<-200 600 600 600> 20 96<-200 264 -200 600> 276 96<-200 264 264 264> 308 64<-200 600>
LayerCount: 2
Fore
SplineSet
20 600 m 1xa8
 84 600 l 1
 196.09375 248 l 1
 308 600 l 1
 372 600 l 1xa9
 372 -200 l 1
 276 -200 l 1
 276 264 l 1
 196 24 l 1
 116 264 l 1
 116 -200 l 1
 20 -200 l 1xa6
 20 600 l 1xa8
EndSplineSet
Validated: 524289
EndChar

StartChar: n
Encoding: 110 110 79
Width: 392
Flags: HMW
HStem: -200 21G<20 116.031 20 20 275.969 372 275.969 275.969> -200 21G<20 116.031 20 20 275.969 372 275.969 275.969> 580 20G<20 116.094 116.094 116.094 275.969 372 372 372> 580 20G<20 116.094 116.094 116.094 275.969 372 372 372>
VStem: 20 96.0312<-200 600> 275.969 96.0312<-200 600 56 600 -200 600>
LayerCount: 2
Fore
SplineSet
20 600 m 1xac
 116.09375 600 l 1
 275.96875 56 l 1
 275.96875 600 l 1
 372 600 l 1
 372 -200 l 1
 275.96875 -200 l 1
 115.6875 344 l 1
 116.03125 -200 l 1
 20 -200 l 1
 20 600 l 1xac
EndSplineSet
Validated: 524289
EndChar

StartChar: o
Encoding: 111 111 80
Width: 328
Flags: HMW
HStem: -200 96<68 145.625 145.619 145.625 145.625 180.25 180.25 180.262 180.262 196.124 145.619 244> 504.004 95.9961<143.584 144.56>
VStem: 20 96<-88.0122 -72.0254 -72.0254 -72 -72 472> 212 96<-72.082 -72 -72 472 472 474.861 474.861 489.315>
LayerCount: 2
Fore
SplineSet
84 600 m 2
 244 600 l 2
 276 600 308 568 308 536 c 2
 308 -136 l 2
 308 -168 276 -200 244 -200 c 2
 84 -200 l 2
 52 -200 20 -168 20 -136 c 2
 20 536 l 2
 20 568 52 600 84 600 c 2
142 504 m 0
 117.506835938 503.896484375 115.967773438 502.444335938 115.967773438 482.028320312 c 0
 115.967773438 479.094726562 116 475.76953125 116 472 c 2
 116 -72 l 1
 116 -72.025390625 l 2
 116 -103.999023438 116.00390625 -104 145.619140625 -104 c 2
 145.625 -104 l 1
 180.25 -104 l 1
 180.26171875 -104 l 2
 211.986328125 -104 212 -103.998046875 212 -72.08203125 c 2
 212 -72 l 1
 212 472 l 1
 212 474.861328125 l 2
 212 503.768554688 211.5234375 504 180.739257812 504 c 2
 180 504 l 1
 148 504 l 2
 146.571289062 504 145.2109375 504.00390625 143.909179688 504.00390625 c 0
 143.258789062 504.00390625 142.622070312 504.002929688 142 504 c 0
EndSplineSet
Validated: 524289
EndChar

StartChar: p
Encoding: 112 112 81
Width: 360
Flags: HMW
HStem: -200 21G<20 115.719 20 20> -200 21G<20 115.719 20 20> 152 96<147.937 229.905 147.937 276 116 229.905> 504.23 95.7702
VStem: 20 95.9375 243.875 96.125
LayerCount: 2
Fore
SplineSet
20 600 m 1xbc
 276.03125 600 l 2
 308.015625 600 340 568 340 536 c 2
 340 216 l 2
 340 184 308 152 276 152 c 2
 116 152 l 1
 115.71875 -200 l 1
 20 -200 l 1
 20 600 l 1xbc
133.53125 504.21875 m 0
 132.258789062 504.1953125 131.060546875 504.125 129.936523438 504 c 0
 116.455078125 502.5 115.936523438 496 115.936523438 472 c 2
 115.936523438 281 l 2
 115.936523438 248.37109375 115.952148438 248 147.936523438 248 c 2
 229.905273438 248 l 1
 243.38671875 249.4296875 243.874023438 256.119140625 243.874023438 279 c 2
 243.874023438 472 l 1
 243.874023438 472.09375 l 2
 243.874023438 504 243.858398438 504 211.905273438 504 c 2
 147.936523438 504 l 2
 142.591796875 504 138.361328125 504.229492188 134.80078125 504.229492188 c 0
 134.368164062 504.229492188 133.9453125 504.2265625 133.53125 504.21875 c 0
EndSplineSet
Validated: 524289
EndChar

StartChar: q
Encoding: 113 113 82
Width: 344
Flags: HMW
HStem: -200 96 40 96 504.003 95.9965
VStem: 20 96<-87.998 -71.999 -71.999 472.001> 180 144<40.001 136.001 136.001 136.001> 228 96<-71.999 40.001 40.001 40.001 136.001 472.001 472.001 472.517>
LayerCount: 2
Fore
SplineSet
84 600 m 2xf4
 196 600 l 1
 260 600 l 2
 292.025390625 600 324 568 324 536 c 2
 324 -136 l 2
 324 -168 292.025390625 -200 260 -200 c 2
 196 -200 l 1
 84 -200 l 2
 51.974609375 -200 20 -168 20 -136 c 2
 20 536 l 2
 20 568 51.974609375 600 84 600 c 2xf4
142.28125 504 m 0
 116.442382812 503.887695312 115.999023438 502.125976562 115.999023438 474.986328125 c 0
 115.999023438 474.0234375 116 473.028320312 116 472.000976562 c 2
 116 -71.9990234375 l 2
 116 -103.997070312 116.209960938 -103.999023438 147.98828125 -103.999023438 c 2
 148 -103.999023438 l 1
 196 -103.999023438 l 1
 196.01171875 -103.999023438 l 2
 227.791992188 -103.999023438 228 -103.997070312 228 -71.9990234375 c 2
 228 40.0009765625 l 1xf4
 180 40.0009765625 l 1
 180 136.000976562 l 1xf8
 228 136.000976562 l 1
 228 472.000976562 l 2
 228 473.032226562 228.000976562 474.030273438 228.000976562 474.99609375 c 0
 228.000976562 503.76953125 227.500976562 504 196.739257812 504 c 2
 196 504 l 1
 148 504 l 2
 146.643554688 504 145.346679688 504.00390625 144.104492188 504.00390625 c 0
 143.483398438 504.00390625 142.875976562 504.002929688 142.28125 504 c 0
EndSplineSet
Validated: 524289
EndChar

StartChar: r
Encoding: 114 114 83
Width: 360
Flags: HMW
HStem: -200 21G<20 116.719 20 20 243.656 339.594 243.656 243.656> -200 21G<20 116.719 20 20 243.656 339.594 243.656 243.656> 152 96<147.937 148.031 148.031 211.75> 504.23 95.7702
VStem: 20 95.9762 243.656 95.9375<-200 -200>
LayerCount: 2
Fore
SplineSet
20 600 m 1xbc
 276.03125 600 l 2
 308.015625 600 340 568 340 536 c 2
 339.6875 248 l 1
 275.71875 184 l 1
 339.90625 152 l 1
 339.59375 -200 l 1
 243.65625 -200 l 1
 243.96875 121 l 2
 243.969726562 121.779296875 243.970703125 122.5390625 243.970703125 123.279296875 c 0
 243.970703125 152 242.930664062 152 211.75 152 c 2
 148.03125 152 l 2
 118.639648438 152 115.9765625 152 115.9765625 127.143554688 c 0
 115.9765625 124.680664062 117.034179688 121.974609375 117.03125 119 c 2
 116.71875 -200 l 1
 20 -200 l 1
 20 600 l 1xbc
133.53125 504.21875 m 0
 132.258789062 504.1953125 131.060546875 504.125 129.936523438 504 c 0
 116.455078125 502.5 115.936523438 496 115.936523438 472 c 2
 115.936523438 281 l 2
 115.936523438 248.37109375 115.952148438 248 147.936523438 248 c 2
 229.905273438 248 l 1
 243.38671875 249.4296875 243.874023438 256.119140625 243.874023438 279 c 2
 243.874023438 472 l 1
 243.874023438 472.09375 l 2
 243.874023438 504 243.858398438 504 211.905273438 504 c 2
 147.936523438 504 l 2
 142.591796875 504 138.361328125 504.229492188 134.80078125 504.229492188 c 0
 134.368164062 504.229492188 133.9453125 504.2265625 133.53125 504.21875 c 0
EndSplineSet
Validated: 524289
EndChar

StartChar: s
Encoding: 115 115 84
Width: 328
Flags: HMW
HStem: -200 96<67.9551 180.156 149.25 180.156 180.156 196.139 149.25 243.75> 152 96<67.9551 243.75 148.188 180.156 180.156 180.162> 504 96<132.207 148.188 148.188 180>
VStem: 20 96.2188<-152 -40 264 280 280 376 376 472> 212.125 95.5625<-72 -40 -40 56 56 120 120 136>
CounterMasks: 1 e0
LayerCount: 2
Fore
SplineSet
83.9375 600 m 2
 243.75 600 l 2
 275.71484375 600 307.6875 568 307.6875 536 c 2
 308 440 l 1
 212.09375 440 l 1
 212.09375 472.25 l 2
 211.98828125 504 212 504 180 504 c 2
 148.1875 504 l 2
 116.225585938 504 116.21875 504 116.21875 472 c 2
 116.21875 376 l 1
 116.21875 280 l 2
 116.21875 248 116.225585938 248 148.1875 248 c 2
 243.75 248 l 2
 275.71484375 248 307.6875 216 307.6875 184 c 2
 307.6875 -136 l 2
 307.6875 -168 275.71484375 -200 243.75 -200 c 2
 83.9375 -200 l 2
 51.97265625 -200 20 -168 20 -136 c 2
 20.3125 -40 l 1
 116.21875 -40 l 1
 116 -72 l 2
 116 -104 116 -103.999023438 149.25 -104 c 2
 180.15625 -104 l 2
 212.12109375 -104 212.125 -104 212.125 -72 c 2
 212.125 -40 l 1
 212.125 56 l 1
 212.125 120 l 2
 212.125 151.999023438 212.12109375 152 180.162109375 152 c 2
 180.15625 152 l 1
 83.9375 152 l 2
 51.97265625 152 20 184 20 216 c 2
 20 536 l 2
 20 568 51.97265625 600 83.9375 600 c 2
EndSplineSet
Validated: 524289
EndChar

StartChar: t
Encoding: 116 116 85
Width: 325
Flags: HMW
HStem: -200.031 21G<115 210 115 115> -200.031 21G<115 210 115 115> 505 95<20 115 20 305 210 305 210 210>
VStem: 115 95<-200.031 505 -200.031 505>
LayerCount: 2
Fore
SplineSet
20 600 m 1xb0
 305 600 l 1
 305 505 l 1
 210 505 l 1
 210 -200.03125 l 1
 115 -200.03125 l 1
 115 505 l 1
 20 505 l 1
 20 600 l 1xb0
EndSplineSet
Validated: 524289
EndChar

StartChar: u
Encoding: 117 117 86
Width: 328
Flags: HMW
HStem: -200 96<67.9873 148 147.988 148 148 180 180 180.012 180.012 195.902 147.988 244> 580 20G<20 116 116 116 212 308 308 308> 580 20G<20 116 116 116 212 308 308 308>
VStem: 20 96<-87.999 -72 -72 600> 212 96<-72 600>
LayerCount: 2
Fore
SplineSet
20 600 m 1xd8
 116 600 l 1
 116 -72 l 2
 116 -103.998046875 116.209960938 -104 147.98828125 -104 c 2
 148 -104 l 1
 180 -104 l 1
 180.01171875 -104 l 2
 211.791992188 -104 212 -103.998046875 212 -72 c 2
 212 600 l 1
 308 600 l 1
 308 -136 l 2
 308 -168 276.025390625 -200 244 -200 c 2
 180 -200 l 1
 84 -200 l 2
 51.974609375 -200 20 -168 20 -136 c 2
 20 600 l 1xd8
EndSplineSet
Validated: 524289
EndChar

StartChar: v
Encoding: 118 118 87
Width: 424
Flags: HMW
HStem: -200 21G<164 260 164 164> -200 21G<164 260 164 164> 580 20G<20 116 116 116 308 404 404 404> 580 20G<20 116 116 116 308 404 404 404>
VStem: 20 96<600 600> 308 96<600 600>
LayerCount: 2
Fore
SplineSet
20 600 m 1xac
 116 600 l 1
 212 0 l 1
 308 600 l 1
 404 600 l 1
 260 -200 l 1
 164 -200 l 1
 20 600 l 1xac
EndSplineSet
Validated: 1
EndChar

StartChar: w
Encoding: 119 119 88
Width: 392
Flags: HMW
HStem: -200 21G<20 84 20 20 308 372 308 308> -200 21G<20 84 20 20 308 372 308 308> 580 20G<20 116 116 116 276 372 372 372> 580 20G<20 116 116 116 276 372 372 372>
VStem: 20 64<-200 600> 20 96<136 600 136 600 136 600> 276 96<136 600 -200 600> 308 64<-200 600>
LayerCount: 2
Fore
SplineSet
20 600 m 1xa4
 116 600 l 1
 116 136 l 1
 196 376 l 1
 276 136 l 1
 276 600 l 1
 372 600 l 1xa6
 372 -200 l 1
 308 -200 l 1
 196.09375 152 l 1
 84 -200 l 1
 20 -200 l 1xa9
 20 600 l 1xa4
EndSplineSet
Validated: 524289
EndChar

StartChar: x
Encoding: 120 120 89
Width: 392
Flags: HMW
HStem: -200 21G<20 116 20 20 276 372 276 276> -200 21G<20 116 20 20 276 372 276 276> 580 20G<20 116 116 116 276 372 372 372> 580 20G<20 116 116 116 276 372 372 372>
LayerCount: 2
Fore
SplineSet
20 600 m 1x60
 116 600 l 1
 196 264 l 1
 276 600 l 1x60
 372 600 l 1
 276 184 l 1
 372 -200 l 1
 276 -200 l 1
 196 88 l 1
 116 -200 l 1x90
 20 -200 l 1
 116 184 l 1
 20 600 l 1x60
EndSplineSet
Validated: 1
EndChar

StartChar: y
Encoding: 121 121 90
Width: 424
Flags: HMW
HStem: -200 21G<164 260 164 164> -200 21G<164 260 164 164> 580 20G<20 116 116 116 308 404 404 404> 580 20G<20 116 116 116 308 404 404 404>
VStem: 164 96<-200 56 56 120 -200 120>
LayerCount: 2
Fore
SplineSet
20 600 m 1xa8
 116 600 l 1
 212 248 l 1
 308 600 l 1
 404 600 l 1
 260 120 l 1
 260 56 l 1
 260 -200 l 1
 164 -200 l 1
 164 56 l 1
 164 120 l 1
 20 600 l 1xa8
EndSplineSet
Validated: 1
EndChar

StartChar: z
Encoding: 122 122 91
Width: 328
Flags: HMW
HStem: -200 96<20 308 139 308 139 308> 504 96<20 189 20 212>
VStem: 20 288<-200 -104>
LayerCount: 2
Fore
SplineSet
20 600 m 1
 212 600 l 1
 308 600 l 1
 139 -104 l 1
 308 -104 l 1
 308 -200 l 1
 116 -200 l 1
 20 -200 l 1
 189 504 l 1
 20 504 l 1
 20 600 l 1
EndSplineSet
Validated: 1
EndChar

StartChar: braceleft
Encoding: 123 123 92
Width: 232
Flags: HMW
HStem: -200 96<68 212 116 212 116 212> 504 96<116 212 116 116>
VStem: 20 96<-104 152 152 152 248 504 -104 539 -104 539.003 -104 553.502> 20 192<-136 -104 -200 152 504 539 539 539.003 539.003 553.502>
LayerCount: 2
Fore
SplineSet
84 600 m 2xd0
 212 600 l 1
 212 504 l 1xd0
 116 504 l 1
 116 -104 l 1xe0
 212 -104 l 1
 212 -200 l 1
 84 -200 l 2
 52 -200 20 -168 20 -136 c 2xd0
 20 152 l 1
 84 184 l 1
 20 248 l 1xe0
 20 539 l 1
 20 539.002929688 l 2
 20 568.001953125 52.0009765625 600 84 600 c 2xd0
EndSplineSet
Validated: 524289
EndChar

StartChar: bar
Encoding: 124 124 93
Width: 136
Flags: HMW
HStem: -200 21G<20 116 20 20> -200 21G<20 116 20 20> 580 20G<20 116 116 116> 580 20G<20 116 116 116>
VStem: 20 96<-200 600 -200 600>
LayerCount: 2
Fore
SplineSet
20 600 m 1xa8
 116 600 l 1
 116 -200 l 1
 20 -200 l 1
 20 600 l 1xa8
EndSplineSet
Validated: 1
EndChar

StartChar: braceright
Encoding: 125 125 94
Width: 232
Flags: HMW
HStem: -200 96<20 116 20 148 20 116> 504 96<20 116 20 148>
VStem: 20 192<-152 -136 -136 -104 -104 -104 504 539 539 539.003> 116 96<-104 152 248 504 504 504>
LayerCount: 2
Fore
SplineSet
20 600 m 1xe0
 148 600 l 2
 179.999023438 600 212 568.001953125 212 539.002929688 c 2
 212 539 l 1xe0
 212 248 l 1
 148 184 l 1
 212 152 l 1xd0
 212 -136 l 2
 212 -168 180 -200 148 -200 c 2
 20 -200 l 1
 20 -104 l 1xe0
 116 -104 l 1
 116 504 l 1xd0
 20 504 l 1
 20 600 l 1xe0
EndSplineSet
Validated: 524289
EndChar

StartChar: asciitilde
Encoding: 126 126 95
Width: 392
Flags: HMW
HStem: 156 122<142 250>
LayerCount: 2
Fore
SplineSet
142 278 m 1
 250 237 l 1
 372 264 l 1
 372 183 l 1
 250 156 l 1
 142 197 l 1
 20 156 l 1
 20 237 l 1
 142 278 l 1
EndSplineSet
Validated: 1
EndChar
